<svg clip-rule="evenodd" fill-rule="evenodd" stroke-linejoin="round" stroke-miterlimit="1.41421" viewBox="0 0 464 464" xmlns="http://www.w3.org/2000/svg"><circle cx="231.9996" cy="231.9998" fill="#fb6a2a" r="228.535"/><path d="m393.484 166.079-91.863-159.1c-2.496-4.318-7.103-6.979-12.092-6.979h-183.716c-4.988 0-9.597 2.661-12.091 6.979l-91.852 159.1c-2.494 4.321-2.494 9.642 0 13.961l91.852 159.11c2.494 4.321 7.104 6.982 12.091 6.982h183.716c4.988 0 9.6-2.661 12.092-6.98l91.863-159.11c2.496-4.321 2.496-9.643 0-13.963zm-195.812 132.46c-69.298 0-125.472-56.179-125.472-125.475 0-69.304 56.174-125.472 125.472-125.472 57.287 0 105.578 38.403 120.608 90.863h-63.36l-16.412-28.429c-1.375-2.38-3.914-3.846-6.661-3.846h-68.349c-2.747 0-5.286 1.466-6.661 3.846l-34.17 59.19c-1.374 2.38-1.374 5.312 0 7.691l34.17 59.192c1.375 2.38 3.914 3.847 6.661 3.847h68.349c2.747 0 5.286-1.467 6.659-3.847l16.414-28.42h63.36c-15.034 52.454-63.323 90.86-120.608 90.86z" fill="#fff" fill-rule="nonzero" transform="translate(34.322 58.934)"/></svg>