<?xml version="1.0" encoding="UTF-8" standalone="no"?>
<!DOCTYPE svg PUBLIC "-//W3C//DTD SVG 1.1//EN" "http://www.w3.org/Graphics/SVG/1.1/DTD/svg11.dtd">
<svg width="100%" height="100%" viewBox="0 0 460 460" version="1.1" xmlns="http://www.w3.org/2000/svg" xmlns:xlink="http://www.w3.org/1999/xlink" xml:space="preserve" xmlns:serif="http://www.serif.com/" style="fill-rule:evenodd;clip-rule:evenodd;stroke-linejoin:round;stroke-miterlimit:1.41421;">
    <g transform="matrix(1,0,0,1,-12.4484,-25.7052)">
        <circle cx="242.448" cy="255.705" r="228.535" style="fill:rgb(217,94,31);"/>
    </g>
    <g transform="matrix(1,0,0,1,32.322,56.934)">
        <path d="M393.484,166.079L301.621,6.979C299.125,2.661 294.518,0 289.529,0L105.813,0C100.825,0 96.216,2.661 93.722,6.979L1.87,166.079C-0.624,170.4 -0.624,175.721 1.87,180.04L93.722,339.15C96.216,343.471 100.826,346.132 105.813,346.132L289.529,346.132C294.517,346.132 299.129,343.471 301.621,339.152L393.484,180.042C395.98,175.721 395.98,170.399 393.484,166.079ZM197.672,298.539C128.374,298.539 72.2,242.36 72.2,173.064C72.2,103.76 128.374,47.592 197.672,47.592C254.959,47.592 303.25,85.995 318.28,138.455L254.92,138.455L238.508,110.026C237.133,107.646 234.594,106.18 231.847,106.18L163.498,106.18C160.751,106.18 158.212,107.646 156.837,110.026L122.667,169.216C121.293,171.596 121.293,174.528 122.667,176.907L156.837,236.099C158.212,238.479 160.751,239.946 163.498,239.946L231.847,239.946C234.594,239.946 237.133,238.479 238.506,236.099L254.92,207.679L318.28,207.679C303.246,260.133 254.957,298.539 197.672,298.539Z" style="fill:white;fill-rule:nonzero;"/>
    </g>
</svg>
